<svg width="34" height="32" viewBox="0 0 34 32" fill="none" xmlns="http://www.w3.org/2000/svg">
<rect width="33.3888" height="31.0588" fill="#EEEEEE"/>
<path d="M16.6944 12.0512C15.772 12.0512 14.8873 12.4176 14.2351 13.0699C13.5828 13.7221 13.2164 14.6068 13.2164 15.5292C13.2164 16.4516 13.5828 17.3363 14.2351 17.9885C14.8873 18.6408 15.772 19.0072 16.6944 19.0072C17.6168 19.0072 18.5015 18.6408 19.1537 17.9885C19.806 17.3363 20.1724 16.4516 20.1724 15.5292C20.1724 14.6068 19.806 13.7221 19.1537 13.0699C18.5015 12.4176 17.6168 12.0512 16.6944 12.0512ZM25.3888 15.5292L21.042 23.0588H12.3472L8 15.5292L12.3472 8H21.042L25.3888 15.5292Z" fill="#EC3700"/>
</svg>
